<?xml version="1.0" encoding="utf-8"?>
<!-- Generator: Adobe Illustrator 26.0.2, SVG Export Plug-In . SVG Version: 6.00 Build 0)  -->
<svg version="1.1" id="레이어_1" xmlns="http://www.w3.org/2000/svg" xmlns:xlink="http://www.w3.org/1999/xlink" x="0px"
	 y="0px" viewBox="0 0 321.1 60" style="enable-background:new 0 0 321.1 60;" xml:space="preserve">
<g>
	<g>
		<polygon points="0,34.6 0,60 4.5,60 4.5,41.1 12.7,49.4 15.8,46.2 4.4,34.6 		"/>
		<polygon points="20.9,60 25.4,60 25.4,44.1 20.9,48.6 		"/>
		<polygon points="0,32 4.5,32 4.5,4.5 55.5,4.5 55.5,55.5 28,55.5 28,60 60,60 60,0 0,0 		"/>
		<polygon points="18.6,34.6 18.5,34.6 18.5,36.5 23.4,36.5 23.4,37.8 18.5,37.8 18.5,43 25.4,43 25.4,41.1 20.4,41.1 20.4,39.8 
			25.4,39.8 25.4,39.6 25.4,34.8 25.4,34.6 25.2,34.6 		"/>
		<rect x="97" width="15.5" height="3.5"/>
		<rect x="97" y="7.3" width="15.5" height="3.5"/>
		<rect x="97" y="14.6" width="15.5" height="3.5"/>
		<polygon points="97,39 112.5,39 112.5,35.5 100.6,35.5 100.6,24.5 112.5,24.5 112.5,21 97,21 		"/>
		<path d="M97,60h15.5V41.9H97V60z M100.6,45.4h8.4v11h-8.4V45.4z"/>
		<polygon points="78,22.1 75.2,22.1 75.2,27.7 69.9,27.7 69.9,30.3 75.2,30.3 75.2,35.9 78,35.9 78,30.3 83.3,30.3 83.3,27.7 
			78,27.7 		"/>
	</g>
	<g>
		<g>
			<g>
				<path d="M137.5,12.1c0-0.6-0.2-1.1-0.7-1.4c-0.4-0.3-1.2-0.7-2.4-1.1c-1.1-0.4-2.1-0.7-2.7-1.1c-1.8-1-2.7-2.3-2.7-4
					c0-0.9,0.2-1.6,0.7-2.3c0.5-0.7,1.2-1.2,2.1-1.6c0.9-0.4,1.9-0.6,3.1-0.6c1.1,0,2.2,0.2,3.1,0.6c0.9,0.4,1.6,1,2.1,1.8
					s0.7,1.6,0.7,2.6h-3.3c0-0.7-0.2-1.3-0.7-1.7s-1.1-0.6-2-0.6c-0.8,0-1.4,0.2-1.9,0.5s-0.7,0.8-0.7,1.3c0,0.5,0.3,1,0.8,1.3
					c0.5,0.4,1.3,0.7,2.3,1c1.9,0.6,3.3,1.3,4.1,2.1c0.9,0.8,1.3,1.9,1.3,3.1c0,1.4-0.5,2.5-1.6,3.3c-1.1,0.8-2.5,1.2-4.2,1.2
					c-1.2,0-2.4-0.2-3.4-0.7c-1-0.5-1.8-1.1-2.3-1.9c-0.5-0.8-0.8-1.7-0.8-2.7h3.3c0,1.8,1.1,2.7,3.2,2.7c0.8,0,1.4-0.2,1.8-0.5
					C137.3,13.1,137.5,12.6,137.5,12.1z"/>
				<path d="M156.2,8.6c0,1.5-0.2,2.8-0.7,3.9c-0.5,1.1-1.2,2-2,2.7l2.7,2.1l-2.1,1.9l-3.4-2.7c-0.4,0.1-0.8,0.1-1.2,0.1
					c-1.3,0-2.5-0.3-3.6-1c-1-0.6-1.9-1.6-2.4-2.7c-0.6-1.2-0.9-2.6-0.9-4.1V7.9c0-1.6,0.3-3,0.9-4.2c0.6-1.2,1.4-2.1,2.4-2.8
					c1-0.6,2.2-1,3.6-1c1.3,0,2.5,0.3,3.6,1c1,0.6,1.8,1.6,2.4,2.8c0.6,1.2,0.9,2.6,0.9,4.2V8.6z M152.8,7.9c0-1.7-0.3-3-0.9-3.8
					c-0.6-0.9-1.5-1.3-2.6-1.3c-1.1,0-2,0.4-2.6,1.3c-0.6,0.9-0.9,2.1-0.9,3.8v0.8c0,1.6,0.3,2.9,0.9,3.8s1.5,1.4,2.6,1.4
					c1.1,0,2-0.4,2.6-1.3s0.9-2.1,0.9-3.8V7.9z"/>
				<path d="M170.8,0.2v10.6c0,1.8-0.5,3.1-1.6,4.2c-1.1,1-2.6,1.5-4.5,1.5c-1.9,0-3.4-0.5-4.5-1.5c-1.1-1-1.7-2.4-1.7-4.1V0.2h3.3
					v10.6c0,1.1,0.3,1.8,0.8,2.3c0.5,0.5,1.2,0.7,2.1,0.7c1.9,0,2.8-1,2.8-2.9V0.2H170.8z"/>
				<path d="M182.3,13h-5.8l-1.1,3.3h-3.5l6-16h3.1l6,16h-3.5L182.3,13z M177.4,10.3h4l-2-6L177.4,10.3z"/>
				<path d="M194.3,10.4h-2.6v5.9h-3.3v-16h6c1.9,0,3.4,0.4,4.4,1.3c1,0.8,1.5,2,1.5,3.6c0,1.1-0.2,2-0.7,2.7
					c-0.5,0.7-1.2,1.3-2.2,1.7l3.5,6.6v0.2h-3.5L194.3,10.4z M191.7,7.7h2.7c0.8,0,1.5-0.2,1.9-0.6c0.5-0.4,0.7-1,0.7-1.7
					c0-0.8-0.2-1.4-0.6-1.8c-0.4-0.4-1.1-0.7-2-0.7h-2.7V7.7z"/>
				<path d="M212.5,9.3h-6.3v4.3h7.4v2.7h-10.8v-16h10.7v2.7h-7.4v3.8h6.3V9.3z"/>
				<path d="M219.8,0.2l4.1,11.6L228,0.2h4.3v16h-3.3v-4.4l0.3-7.6l-4.3,12h-2.3l-4.3-11.9l0.3,7.6v4.4h-3.3v-16H219.8z"/>
				<path d="M244.9,9.3h-6.3v4.3h7.4v2.7h-10.8v-16H246v2.7h-7.4v3.8h6.3V9.3z"/>
				<path d="M260.3,2.9h-4.9v13.4H252V2.9h-4.8V0.2h13.1V2.9z"/>
				<path d="M271.8,9.3h-6.3v4.3h7.4v2.7h-10.8v-16h10.7v2.7h-7.4v3.8h6.3V9.3z"/>
				<path d="M280.8,10.4h-2.6v5.9h-3.3v-16h6c1.9,0,3.4,0.4,4.4,1.3c1,0.8,1.5,2,1.5,3.6c0,1.1-0.2,2-0.7,2.7
					c-0.5,0.7-1.2,1.3-2.2,1.7l3.5,6.6v0.2h-3.5L280.8,10.4z M278.1,7.7h2.7c0.8,0,1.5-0.2,1.9-0.6s0.7-1,0.7-1.7
					c0-0.8-0.2-1.4-0.6-1.8c-0.4-0.4-1.1-0.7-2-0.7h-2.7V7.7z"/>
				<path d="M297.5,12.1c0-0.6-0.2-1.1-0.7-1.4c-0.4-0.3-1.2-0.7-2.4-1.1c-1.1-0.4-2.1-0.7-2.7-1.1c-1.8-1-2.7-2.3-2.7-4
					c0-0.9,0.2-1.6,0.7-2.3c0.5-0.7,1.2-1.2,2.1-1.6c0.9-0.4,1.9-0.6,3.1-0.6c1.1,0,2.2,0.2,3.1,0.6c0.9,0.4,1.6,1,2.1,1.8
					s0.7,1.6,0.7,2.6h-3.3c0-0.7-0.2-1.3-0.7-1.7s-1.1-0.6-2-0.6c-0.8,0-1.4,0.2-1.9,0.5s-0.7,0.8-0.7,1.3c0,0.5,0.3,1,0.8,1.3
					c0.5,0.4,1.3,0.7,2.3,1c1.9,0.6,3.3,1.3,4.1,2.1c0.9,0.8,1.3,1.9,1.3,3.1c0,1.4-0.5,2.5-1.6,3.3c-1.1,0.8-2.5,1.2-4.2,1.2
					c-1.2,0-2.4-0.2-3.4-0.7c-1-0.5-1.8-1.1-2.3-1.9c-0.5-0.8-0.8-1.7-0.8-2.7h3.3c0,1.8,1.1,2.7,3.2,2.7c0.8,0,1.4-0.2,1.8-0.5
					C297.3,13.1,297.5,12.6,297.5,12.1z"/>
			</g>
			<g>
				<path d="M141.9,37.8c-0.6,0.7-1.4,1.3-2.5,1.7c-1.1,0.4-2.3,0.6-3.6,0.6c-1.4,0-2.6-0.3-3.7-0.9c-1-0.6-1.9-1.5-2.4-2.6
					c-0.6-1.2-0.9-2.5-0.9-4.1v-1.1c0-1.6,0.3-3,0.8-4.2c0.5-1.2,1.3-2.1,2.3-2.7c1-0.6,2.2-0.9,3.6-0.9c1.9,0,3.4,0.5,4.5,1.4
					c1.1,0.9,1.7,2.2,1.9,4h-3.2c-0.1-0.9-0.5-1.6-1-2c-0.5-0.4-1.2-0.6-2.1-0.6c-1.1,0-2,0.4-2.6,1.3c-0.6,0.8-0.9,2.1-0.9,3.8v1
					c0,1.7,0.3,3,1,3.8c0.6,0.9,1.6,1.3,2.8,1.3c1.2,0,2.1-0.3,2.7-0.8v-2.8h-3v-2.4h6.3V37.8z"/>
				<path d="M150.5,33.9h-2.6v5.9h-3.3v-16h6c1.9,0,3.4,0.4,4.4,1.3c1,0.8,1.5,2,1.5,3.6c0,1.1-0.2,2-0.7,2.7
					c-0.5,0.7-1.2,1.3-2.2,1.7l3.5,6.6v0.2h-3.5L150.5,33.9z M147.8,31.2h2.7c0.8,0,1.5-0.2,1.9-0.6c0.5-0.4,0.7-1,0.7-1.7
					c0-0.8-0.2-1.4-0.6-1.8c-0.4-0.4-1.1-0.7-2-0.7h-2.7V31.2z"/>
				<path d="M172.1,32.1c0,1.6-0.3,3-0.8,4.2c-0.6,1.2-1.4,2.1-2.4,2.8c-1,0.6-2.2,1-3.6,1c-1.3,0-2.5-0.3-3.6-1
					c-1-0.6-1.9-1.6-2.4-2.7c-0.6-1.2-0.9-2.6-0.9-4.1v-0.8c0-1.6,0.3-3,0.9-4.2c0.6-1.2,1.4-2.1,2.4-2.8c1-0.6,2.2-1,3.6-1
					c1.3,0,2.5,0.3,3.6,1c1,0.6,1.8,1.6,2.4,2.8c0.6,1.2,0.9,2.6,0.9,4.2V32.1z M168.8,31.4c0-1.7-0.3-3-0.9-3.8
					c-0.6-0.9-1.5-1.3-2.6-1.3c-1.1,0-2,0.4-2.6,1.3c-0.6,0.9-0.9,2.1-0.9,3.8v0.8c0,1.6,0.3,2.9,0.9,3.8s1.5,1.4,2.6,1.4
					c1.1,0,2-0.4,2.6-1.3c0.6-0.9,0.9-2.1,0.9-3.8V31.4z"/>
				<path d="M186.7,23.7v10.6c0,1.8-0.5,3.1-1.6,4.2c-1.1,1-2.6,1.5-4.5,1.5c-1.9,0-3.4-0.5-4.5-1.5c-1.1-1-1.7-2.4-1.7-4.1V23.7
					h3.3v10.6c0,1.1,0.3,1.8,0.8,2.3c0.5,0.5,1.2,0.7,2.1,0.7c1.9,0,2.8-1,2.8-2.9V23.7H186.7z"/>
				<path d="M192.7,34.1v5.7h-3.3v-16h6.3c1.2,0,2.3,0.2,3.2,0.7c0.9,0.4,1.6,1.1,2.1,1.9c0.5,0.8,0.7,1.7,0.7,2.8
					c0,1.6-0.5,2.8-1.6,3.7c-1.1,0.9-2.6,1.4-4.5,1.4H192.7z M192.7,31.5h3c0.9,0,1.5-0.2,2-0.6c0.5-0.4,0.7-1,0.7-1.8
					c0-0.8-0.2-1.4-0.7-1.9c-0.5-0.5-1.1-0.7-1.9-0.7h-3V31.5z"/>
			</g>
		</g>
		<g>
			<path d="M130.7,49.7h0.7c-0.6,1.1-1.1,3.2-1.1,5.2c0,1.9,0.5,4.1,1.1,5.1h-0.7c-0.8-1.4-1.2-3.1-1.2-5.1
				C129.5,52.8,129.9,51.1,130.7,49.7z M131.2,55.1h7.1v0.7h-3.1v2.7h-0.8v-2.7h-3.1V55.1z M134.2,51.9h-2.4v-0.7h5.8v0.7h-2.4
				c0,0.9,1.2,1.8,2.7,2l-0.3,0.7c-1.3-0.2-2.4-0.8-2.9-1.7c-0.5,0.9-1.6,1.5-2.9,1.7l-0.3-0.7C133,53.7,134.2,52.8,134.2,51.9z
				 M139.2,54.9c0-1.9-0.5-4.1-1.1-5.2h0.7c0.8,1.4,1.2,3.1,1.2,5.2c0,2-0.5,3.7-1.2,5.1h-0.7C138.7,58.9,139.2,56.8,139.2,54.9z"/>
			<path d="M145.4,51.5H142v-0.7h4.4c0,2.5-1.8,4.3-4.5,5.2l-0.4-0.7C143.7,54.6,145.2,53.2,145.4,51.5z M143.2,56.4h0.9v2.3h5.5
				v0.7h-6.3V56.4z M149.3,57.1h-0.8v-3.4h-2.1V53h2.1v-2.9h0.8V57.1z"/>
			<path d="M159.5,55.6h-3.9v1.1h2.9v2.9h-0.8v-2.2h-5.8v-0.7h3v-1.1h-3.9v-0.7h8.7V55.6z M154.7,51.7h-3V51h3v-1h0.8v1h3.1v0.7h-3
				c0.1,1.1,1.6,1.8,3.4,2l-0.3,0.6c-1.6-0.2-3-0.7-3.6-1.7c-0.6,1-2,1.5-3.6,1.7l-0.3-0.6C153.1,53.5,154.7,52.8,154.7,51.7z"/>
			<path d="M166,56.7l-0.5,0.7c-1.1-0.5-1.9-1.7-2.4-3c-0.4,1.4-1.3,2.6-2.4,3.2l-0.5-0.7c1.4-0.7,2.5-2.5,2.5-4.3v-1.7h0.8v1.7
				C163.6,54.3,164.7,56,166,56.7z M166.9,50.1h0.8v3.9h1.6v0.7h-1.6v4.9h-0.8V50.1z"/>
			<path d="M175.5,56.7l-0.5,0.7c-1.1-0.5-1.9-1.7-2.4-3c-0.4,1.4-1.3,2.6-2.4,3.2l-0.5-0.7c1.4-0.7,2.5-2.5,2.5-4.3v-1.7h0.8v1.7
				C173.1,54.3,174.2,56,175.5,56.7z M176.4,50.1h0.8v3.9h1.6v0.7h-1.6v4.9h-0.8V50.1z"/>
			<path d="M188.1,56.3h-4v3.3h-0.8v-3.3h-3.9v-0.7h8.7V56.3z M180.5,50.6h6.5v3.7h-6.5V50.6z M186.1,53.7v-2.4h-4.8v2.4H186.1z"/>
			<path d="M197.6,58.4h-8.7v-0.7h3.9v-2.3h0.8v2.3h4V58.4z M192.8,51.4v-0.7h0.9v0.7c0,1.6,1.9,3,3.6,3.3l-0.4,0.7
				c-1.5-0.3-3-1.3-3.6-2.7c-0.6,1.4-2.1,2.4-3.6,2.7l-0.4-0.7C190.9,54.5,192.7,53.1,192.8,51.4z"/>
			<path d="M200.4,52.8v-0.9h-1.8v-0.7h4.4v0.7h-1.8v0.9c0,1.6,0.7,3.3,2.1,4.1l-0.5,0.6c-0.9-0.6-1.6-1.6-1.9-2.8
				c-0.3,1.3-1,2.4-2,3l-0.5-0.6C199.6,56.3,200.4,54.5,200.4,52.8z M202.2,53.5h1.6v-3.2h0.8v8.8h-0.8v-4.9h-1.6V53.5z M206.5,59.6
				h-0.8v-9.5h0.8V59.6z"/>
			<path d="M207.9,54.2h3.6v-1.7h0.8v1.7h4.3v0.7h-8.7V54.2z M215.5,51.2c0,0.7,0,1.5-0.3,2.5l-0.8-0.1c0.3-1,0.3-1.8,0.3-2.4v0
				h-5.7v-0.7h6.6V51.2z M209,55.7h0.8v1.2h4.7v-1.2h0.8v3.8H209V55.7z M214.6,58.8v-1.3h-4.7v1.3H214.6z"/>
			<path d="M222.4,57.2H218V51h4.4V57.2z M221.5,56.5v-4.8h-2.8v4.8H221.5z M224.4,50.1h0.8v9.6h-0.8V50.1z"/>
			<path d="M227.3,50.9h4.5v0.7h-3.6v2h3.2v0.7h-3.2v2.3c1.8,0,2.9-0.1,4.2-0.3l0.1,0.7c-1.4,0.2-2.6,0.3-4.4,0.3h-0.7V50.9z
				 M234.8,59.6H234v-5.3h-2v-0.7h2v-3.6h0.8V59.6z"/>
			<path d="M236.4,57.6h8.7v0.7h-8.7V57.6z M244.7,54.9l-0.4,0.7c-1.4-0.3-3-1.4-3.6-2.8c-0.6,1.4-2.1,2.4-3.6,2.8l-0.4-0.7
				c1.7-0.3,3.5-1.8,3.5-3.4v-0.7h0.9v0.7C241.2,53.1,243,54.6,244.7,54.9z"/>
			<path d="M246,56.7c0-0.9,0.6-1.5,1.5-2.2c-0.5-0.6-0.9-1.2-0.9-1.9c0-1.1,0.7-1.8,1.9-1.8c1.2,0,1.9,0.8,1.9,1.6
				c0,0.7-0.4,1.3-1,1.7l-0.6,0.4l1.7,2c0.2-0.4,0.3-0.9,0.3-1.4h0.9c0,1.1-0.3,1.7-0.6,2.1l1.1,1.3H251l-0.5-0.7
				c-0.5,0.5-1.3,0.8-2,0.8C246.9,58.9,246,57.9,246,56.7z M248.4,58c0.5,0,1.1-0.2,1.5-0.6l-1.8-2.2l-0.3,0.2
				c-0.7,0.5-0.9,1-0.9,1.3C246.9,57.4,247.5,58,248.4,58z M248.2,54l0.5-0.4c0.4-0.3,0.7-0.6,0.7-1.1c0-0.4-0.4-0.8-0.9-0.8
				c-0.6,0-1,0.5-1,1C247.5,53.1,247.9,53.5,248.2,54z"/>
			<path d="M254.6,52.8v-0.9h-1.8v-0.7h4.4v0.7h-1.8v0.9c0,1.6,0.7,3.3,2.1,4.1l-0.5,0.6c-0.9-0.6-1.6-1.6-1.9-2.8
				c-0.3,1.3-1,2.4-2,3l-0.5-0.6C253.8,56.3,254.6,54.5,254.6,52.8z M256.4,53.5h1.6v-3.2h0.8v8.8h-0.8v-4.9h-1.6V53.5z M260.8,59.6
				H260v-9.5h0.8V59.6z"/>
			<path d="M262.1,54.2h3.6v-1.7h0.8v1.7h4.3v0.7h-8.7V54.2z M269.7,51.2c0,0.7,0,1.5-0.3,2.5l-0.8-0.1c0.3-1,0.3-1.8,0.3-2.4v0
				h-5.7v-0.7h6.6V51.2z M263.3,55.7h0.8v1.2h4.7v-1.2h0.8v3.8h-6.4V55.7z M268.8,58.8v-1.3h-4.7v1.3H268.8z"/>
			<path d="M276.6,57.2h-4.4V51h4.4V57.2z M275.8,56.5v-4.8H273v4.8H275.8z M278.7,50.1h0.8v9.6h-0.8V50.1z"/>
			<path d="M281.6,50.9h4.5v0.7h-3.6v2h3.2v0.7h-3.2v2.3c1.8,0,2.9-0.1,4.2-0.3l0.1,0.7c-1.4,0.2-2.6,0.3-4.4,0.3h-0.7V50.9z
				 M289.1,59.6h-0.8v-5.3h-2v-0.7h2v-3.6h0.8V59.6z"/>
			<path d="M290.6,57.6h8.7v0.7h-8.7V57.6z M298.9,54.9l-0.4,0.7c-1.4-0.3-3-1.4-3.6-2.8c-0.6,1.4-2.1,2.4-3.6,2.8l-0.4-0.7
				c1.7-0.3,3.5-1.8,3.5-3.4v-0.7h0.9v0.7C295.4,53.1,297.3,54.6,298.9,54.9z"/>
			<path d="M305.1,50.9c1.2,0,1.9,1.1,2.1,2.9h1.2v-3.5h0.8v8.9h-0.8v-4.6h-1.2c-0.1,1.9-0.9,3-2.1,3c-1.2,0-2-1.3-2.1-3.3
				C303,52.2,303.8,50.9,305.1,50.9z M305.1,56.7c0.8,0,1.3-1,1.3-2.5c0-1.6-0.5-2.5-1.3-2.5c-0.8,0-1.3,1-1.3,2.5
				C303.8,55.7,304.3,56.7,305.1,56.7z M311.1,59.6h-0.8v-9.5h0.8V59.6z"/>
			<path d="M312.4,57.6h3.4v-2.5h0.8v2.5h4.5v0.7h-8.7V57.6z M320.1,51.9c0,1.2,0,2.5-0.4,4.4l-0.8-0.1c0.2-0.9,0.3-1.6,0.3-2.3
				l-5.8,0.3l-0.1-0.7l6-0.2c0-0.5,0-1,0-1.4v-0.2h-5.8V51h6.6V51.9z"/>
		</g>
	</g>
</g>
</svg>
